<svg width="153" height="19" viewBox="0 0 153 19" fill="none" xmlns="http://www.w3.org/2000/svg">
<path d="M11.15 2.85C11.25 3.01667 11.3417 3.23333 11.425 3.5C11.5083 3.76667 11.55 4.05833 11.55 4.375C11.55 4.925 11.425 5.33333 11.175 5.6C10.9417 5.86667 10.6083 6 10.175 6H4.625V9.275H10.3C10.4 9.45833 10.4917 9.675 10.575 9.925C10.675 10.175 10.725 10.4667 10.725 10.8C10.725 11.35 10.6 11.7583 10.35 12.025C10.1 12.275 9.76667 12.4 9.35 12.4H4.675V17.975C4.49167 18.025 4.23333 18.0667 3.9 18.1C3.56667 18.15 3.21667 18.175 2.85 18.175C2.06667 18.175 1.51667 18.0417 1.2 17.775C0.9 17.5083 0.75 17.025 0.75 16.325V4.925C0.75 4.29167 0.933333 3.79167 1.3 3.425C1.68333 3.04167 2.19167 2.85 2.825 2.85H11.15ZM17.3377 17.975C17.171 18.025 16.9377 18.0667 16.6377 18.1C16.3377 18.15 16.0044 18.175 15.6377 18.175C14.8877 18.175 14.346 18.0583 14.0127 17.825C13.696 17.575 13.5377 17.1 13.5377 16.4V6.125C13.7044 6.075 13.9377 6.025 14.2377 5.975C14.5377 5.925 14.871 5.9 15.2377 5.9C15.9877 5.9 16.521 6.025 16.8377 6.275C17.171 6.525 17.3377 7 17.3377 7.7V17.975ZM13.3127 2.525C13.3127 1.95833 13.5044 1.475 13.8877 1.075C14.2877 0.674999 14.8044 0.474999 15.4377 0.474999C16.071 0.474999 16.5794 0.674999 16.9627 1.075C17.3627 1.475 17.5627 1.95833 17.5627 2.525C17.5627 3.10833 17.3627 3.6 16.9627 4C16.5794 4.4 16.071 4.6 15.4377 4.6C14.8044 4.6 14.2877 4.4 13.8877 4C13.5044 3.6 13.3127 3.10833 13.3127 2.525ZM28.048 10.325C28.048 9.74167 27.873 9.30833 27.523 9.025C27.173 8.74167 26.7064 8.6 26.123 8.6C25.723 8.6 25.3564 8.65 25.023 8.75C24.6897 8.85 24.3814 8.975 24.098 9.125V17.975C23.9314 18.025 23.698 18.0667 23.398 18.1C23.098 18.15 22.7647 18.175 22.398 18.175C21.648 18.175 21.1064 18.0583 20.773 17.825C20.4397 17.575 20.273 17.1 20.273 16.4V8.675C20.273 8.24167 20.3647 7.89167 20.548 7.625C20.7314 7.35833 20.9897 7.10833 21.323 6.875C21.8564 6.49167 22.5397 6.18333 23.373 5.95C24.223 5.71667 25.1564 5.6 26.173 5.6C27.9897 5.6 29.3897 6 30.373 6.8C31.373 7.6 31.873 8.74167 31.873 10.225V17.975C31.6897 18.025 31.448 18.0667 31.148 18.1C30.848 18.15 30.5147 18.175 30.148 18.175C29.398 18.175 28.8564 18.0583 28.523 17.825C28.2064 17.575 28.048 17.1 28.048 16.4V10.325ZM40.4518 5.6C40.8351 5.6 41.1934 5.63333 41.5268 5.7C41.8768 5.75 42.1934 5.825 42.4768 5.925V1.725C42.6601 1.675 42.9018 1.625 43.2018 1.575C43.5018 1.525 43.8351 1.5 44.2018 1.5C44.9518 1.5 45.4851 1.625 45.8018 1.875C46.1351 2.125 46.3018 2.6 46.3018 3.3V15.475C46.3018 15.875 46.2184 16.2167 46.0518 16.5C45.8851 16.7667 45.6184 17.0167 45.2518 17.25C44.7851 17.5333 44.1851 17.7917 43.4518 18.025C42.7184 18.2583 41.8768 18.375 40.9268 18.375C38.8268 18.375 37.1684 17.85 35.9518 16.8C34.7518 15.7333 34.1518 14.1417 34.1518 12.025C34.1518 10.925 34.3101 9.975 34.6268 9.175C34.9601 8.375 35.4101 7.70833 35.9768 7.175C36.5434 6.64167 37.2101 6.25 37.9768 6C38.7434 5.73333 39.5684 5.6 40.4518 5.6ZM42.5018 8.975C42.2851 8.875 42.0434 8.79167 41.7768 8.725C41.5268 8.64167 41.2601 8.6 40.9768 8.6C40.0768 8.6 39.3601 8.875 38.8268 9.425C38.2934 9.975 38.0268 10.85 38.0268 12.05C38.0268 13.2 38.2768 14.0417 38.7768 14.575C39.2934 15.0917 40.0018 15.35 40.9018 15.35C41.2518 15.35 41.5601 15.3167 41.8268 15.25C42.1101 15.1667 42.3351 15.075 42.5018 14.975V8.975ZM69.3342 10.4C69.3342 11.7 69.1342 12.85 68.7342 13.85C68.3508 14.85 67.8092 15.6917 67.1092 16.375C66.4092 17.0417 65.5842 17.55 64.6342 17.9C63.6842 18.25 62.6508 18.425 61.5342 18.425C60.4175 18.425 59.3842 18.25 58.4342 17.9C57.4842 17.55 56.6592 17.0417 55.9592 16.375C55.2758 15.6917 54.7342 14.85 54.3342 13.85C53.9508 12.85 53.7592 11.7 53.7592 10.4C53.7592 9.1 53.9592 7.95833 54.3592 6.975C54.7592 5.975 55.3092 5.14167 56.0092 4.475C56.7092 3.79167 57.5258 3.275 58.4592 2.925C59.4092 2.575 60.4342 2.4 61.5342 2.4C62.6342 2.4 63.6592 2.575 64.6092 2.925C65.5592 3.275 66.3842 3.79167 67.0842 4.475C67.7842 5.14167 68.3342 5.975 68.7342 6.975C69.1342 7.95833 69.3342 9.1 69.3342 10.4ZM65.2842 10.4C65.2842 8.8 64.9425 7.6 64.2592 6.8C63.5925 5.98333 62.6842 5.575 61.5342 5.575C60.4008 5.575 59.4925 5.98333 58.8092 6.8C58.1258 7.6 57.7842 8.8 57.7842 10.4C57.7842 12.0167 58.1175 13.2333 58.7842 14.05C59.4675 14.85 60.3842 15.25 61.5342 15.25C62.6842 15.25 63.5925 14.85 64.2592 14.05C64.9425 13.2333 65.2842 12.0167 65.2842 10.4ZM83.2891 15.5C83.2891 16.2833 82.9474 16.8833 82.2641 17.3C81.7307 17.6333 81.0724 17.8917 80.2891 18.075C79.5057 18.275 78.6391 18.375 77.6891 18.375C76.7891 18.375 75.9724 18.275 75.2391 18.075C74.5057 17.8917 73.8724 17.5917 73.3391 17.175C72.8224 16.7583 72.4141 16.2333 72.1141 15.6C71.8307 14.9667 71.6891 14.2 71.6891 13.3V6.025C71.8724 5.975 72.1141 5.925 72.4141 5.875C72.7141 5.825 73.0474 5.8 73.4141 5.8C74.1641 5.8 74.6974 5.925 75.0141 6.175C75.3474 6.425 75.5141 6.9 75.5141 7.6V13.275C75.5141 14.025 75.7057 14.5667 76.0891 14.9C76.4724 15.2167 77.0141 15.375 77.7141 15.375C78.1474 15.375 78.5057 15.3417 78.7891 15.275C79.0891 15.1917 79.3141 15.1083 79.4641 15.025V6.025C79.6307 5.975 79.8641 5.925 80.1641 5.875C80.4641 5.825 80.7974 5.8 81.1641 5.8C81.9141 5.8 82.4557 5.925 82.7891 6.175C83.1224 6.425 83.2891 6.9 83.2891 7.6V15.5ZM89.9184 17.975C89.7517 18.025 89.5184 18.0667 89.2184 18.1C88.9184 18.15 88.585 18.175 88.2184 18.175C87.4684 18.175 86.9267 18.0583 86.5934 17.825C86.26 17.575 86.0934 17.1 86.0934 16.4V8.775C86.0934 8.30833 86.21 7.90833 86.4434 7.575C86.6767 7.24167 87.0017 6.95 87.4184 6.7C87.9684 6.36667 88.6267 6.10833 89.3934 5.925C90.1767 5.725 90.9934 5.625 91.8434 5.625C93.5767 5.625 94.4434 6.20833 94.4434 7.375C94.4434 7.65833 94.4017 7.91667 94.3184 8.15C94.235 8.38333 94.1434 8.58333 94.0434 8.75C93.66 8.66667 93.1934 8.625 92.6434 8.625C92.16 8.625 91.6767 8.68333 91.1934 8.8C90.71 8.91667 90.285 9.075 89.9184 9.275V17.975ZM113.705 6.775C113.705 7.525 113.497 8.175 113.08 8.725C112.68 9.25833 112.097 9.675 111.33 9.975C112.297 10.2917 113.022 10.7583 113.505 11.375C113.988 11.9917 114.23 12.7333 114.23 13.6C114.23 15.2167 113.63 16.4167 112.43 17.2C111.247 17.9833 109.53 18.375 107.28 18.375C106.98 18.375 106.638 18.3667 106.255 18.35C105.888 18.3333 105.505 18.3 105.105 18.25C104.722 18.2167 104.33 18.1583 103.93 18.075C103.547 18.0083 103.197 17.9167 102.88 17.8C102.013 17.4833 101.58 16.9167 101.58 16.1V4.2C101.58 3.86667 101.663 3.60833 101.83 3.425C102.013 3.24167 102.272 3.1 102.605 3C103.155 2.81667 103.838 2.68333 104.655 2.6C105.472 2.5 106.313 2.45 107.18 2.45C109.263 2.45 110.872 2.80833 112.005 3.525C113.138 4.225 113.705 5.30833 113.705 6.775ZM110.23 13.425C110.23 12.2417 109.472 11.65 107.955 11.65H105.38V15.15C105.647 15.2167 105.98 15.2667 106.38 15.3C106.78 15.3333 107.163 15.35 107.53 15.35C108.33 15.35 108.98 15.2 109.48 14.9C109.98 14.5833 110.23 14.0917 110.23 13.425ZM105.38 8.875H107.705C108.355 8.875 108.863 8.725 109.23 8.425C109.597 8.125 109.78 7.68333 109.78 7.1C109.78 6.56667 109.563 6.15833 109.13 5.875C108.713 5.575 108.08 5.425 107.23 5.425C106.913 5.425 106.58 5.44167 106.23 5.475C105.88 5.49167 105.597 5.51667 105.38 5.55V8.875ZM119.788 13.575C120.021 14.275 120.429 14.775 121.013 15.075C121.596 15.3583 122.271 15.5 123.038 15.5C123.738 15.5 124.396 15.4083 125.013 15.225C125.629 15.025 126.129 14.8083 126.513 14.575C126.763 14.7417 126.971 14.9583 127.138 15.225C127.304 15.4917 127.388 15.7833 127.388 16.1C127.388 16.4833 127.271 16.8167 127.038 17.1C126.804 17.3833 126.479 17.625 126.063 17.825C125.663 18.0083 125.179 18.1417 124.613 18.225C124.063 18.325 123.454 18.375 122.788 18.375C121.804 18.375 120.896 18.2417 120.063 17.975C119.229 17.6917 118.513 17.2833 117.913 16.75C117.313 16.2 116.838 15.5167 116.488 14.7C116.154 13.8833 115.988 12.925 115.988 11.825C115.988 10.7583 116.154 9.83333 116.488 9.05C116.838 8.26667 117.296 7.61667 117.863 7.1C118.446 6.58333 119.104 6.20833 119.838 5.975C120.588 5.725 121.354 5.6 122.138 5.6C122.988 5.6 123.763 5.73333 124.463 6C125.179 6.25 125.788 6.60833 126.288 7.075C126.804 7.54167 127.204 8.1 127.488 8.75C127.771 9.4 127.913 10.1083 127.913 10.875C127.913 11.4083 127.771 11.8083 127.488 12.075C127.204 12.3417 126.804 12.5167 126.288 12.6L119.788 13.575ZM122.163 8.425C121.446 8.425 120.846 8.65 120.363 9.1C119.896 9.53333 119.621 10.1667 119.538 11L124.313 10.225C124.279 9.79167 124.088 9.38333 123.738 9C123.388 8.61667 122.863 8.425 122.163 8.425ZM133.362 13.575C133.595 14.275 134.004 14.775 134.587 15.075C135.17 15.3583 135.845 15.5 136.612 15.5C137.312 15.5 137.97 15.4083 138.587 15.225C139.204 15.025 139.704 14.8083 140.087 14.575C140.337 14.7417 140.545 14.9583 140.712 15.225C140.879 15.4917 140.962 15.7833 140.962 16.1C140.962 16.4833 140.845 16.8167 140.612 17.1C140.379 17.3833 140.054 17.625 139.637 17.825C139.237 18.0083 138.754 18.1417 138.187 18.225C137.637 18.325 137.029 18.375 136.362 18.375C135.379 18.375 134.47 18.2417 133.637 17.975C132.804 17.6917 132.087 17.2833 131.487 16.75C130.887 16.2 130.412 15.5167 130.062 14.7C129.729 13.8833 129.562 12.925 129.562 11.825C129.562 10.7583 129.729 9.83333 130.062 9.05C130.412 8.26667 130.87 7.61667 131.437 7.1C132.02 6.58333 132.679 6.20833 133.412 5.975C134.162 5.725 134.929 5.6 135.712 5.6C136.562 5.6 137.337 5.73333 138.037 6C138.754 6.25 139.362 6.60833 139.862 7.075C140.379 7.54167 140.779 8.1 141.062 8.75C141.345 9.4 141.487 10.1083 141.487 10.875C141.487 11.4083 141.345 11.8083 141.062 12.075C140.779 12.3417 140.379 12.5167 139.862 12.6L133.362 13.575ZM135.737 8.425C135.02 8.425 134.42 8.65 133.937 9.1C133.47 9.53333 133.195 10.1667 133.112 11L137.887 10.225C137.854 9.79167 137.662 9.38333 137.312 9C136.962 8.61667 136.437 8.425 135.737 8.425ZM147.511 17.975C147.344 18.025 147.111 18.0667 146.811 18.1C146.511 18.15 146.178 18.175 145.811 18.175C145.061 18.175 144.519 18.0583 144.186 17.825C143.853 17.575 143.686 17.1 143.686 16.4V8.775C143.686 8.30833 143.803 7.90833 144.036 7.575C144.269 7.24167 144.594 6.95 145.011 6.7C145.561 6.36667 146.219 6.10833 146.986 5.925C147.769 5.725 148.586 5.625 149.436 5.625C151.169 5.625 152.036 6.20833 152.036 7.375C152.036 7.65833 151.994 7.91667 151.911 8.15C151.828 8.38333 151.736 8.58333 151.636 8.75C151.253 8.66667 150.786 8.625 150.236 8.625C149.753 8.625 149.269 8.68333 148.786 8.8C148.303 8.91667 147.878 9.075 147.511 9.275V17.975Z" fill="url(#paint0_linear_56:10)"/>
<path d="M-1 20.5H152.411V21.75H-1V20.5Z" fill="url(#paint1_linear_56:10)"/>
<defs>
<linearGradient id="paint0_linear_56:10" x1="76" y1="-9" x2="76" y2="31" gradientUnits="userSpaceOnUse">
<stop stop-color="#F31402"/>
<stop offset="1" stop-color="#F0A24D"/>
</linearGradient>
<linearGradient id="paint1_linear_56:10" x1="76" y1="-9" x2="76" y2="31" gradientUnits="userSpaceOnUse">
<stop stop-color="#F31402"/>
<stop offset="1" stop-color="#F0A24D"/>
</linearGradient>
</defs>
</svg>
