<svg width="207" height="58" viewBox="0 0 207 58" fill="none" xmlns="http://www.w3.org/2000/svg">
<path d="M53.213 35.042C52.681 35.042 52.254 34.888 51.932 34.58C51.624 34.258 51.47 33.831 51.47 33.299V22.232C51.624 22.204 51.841 22.169 52.121 22.127C52.415 22.085 52.702 22.064 52.982 22.064C53.612 22.064 54.067 22.169 54.347 22.379C54.627 22.589 54.767 23.002 54.767 23.618V32.375H59.807C59.891 32.515 59.968 32.697 60.038 32.921C60.122 33.145 60.164 33.39 60.164 33.656C60.164 34.118 60.059 34.468 59.849 34.706C59.653 34.93 59.38 35.042 59.03 35.042H53.213ZM64.4265 31.283C64.6225 31.871 64.9655 32.291 65.4555 32.543C65.9455 32.781 66.5125 32.9 67.1565 32.9C67.7445 32.9 68.2975 32.823 68.8155 32.669C69.3335 32.501 69.7535 32.319 70.0755 32.123C70.2855 32.263 70.4605 32.445 70.6005 32.669C70.7405 32.893 70.8105 33.138 70.8105 33.404C70.8105 33.726 70.7125 34.006 70.5165 34.244C70.3205 34.482 70.0475 34.685 69.6975 34.853C69.3615 35.007 68.9555 35.119 68.4795 35.189C68.0175 35.273 67.5065 35.315 66.9465 35.315C66.1205 35.315 65.3575 35.203 64.6575 34.979C63.9575 34.741 63.3555 34.398 62.8515 33.95C62.3475 33.488 61.9485 32.914 61.6545 32.228C61.3745 31.542 61.2345 30.737 61.2345 29.813C61.2345 28.917 61.3745 28.14 61.6545 27.482C61.9485 26.824 62.3335 26.278 62.8095 25.844C63.2995 25.41 63.8525 25.095 64.4685 24.899C65.0985 24.689 65.7425 24.584 66.4005 24.584C67.1145 24.584 67.7655 24.696 68.3535 24.92C68.9555 25.13 69.4665 25.431 69.8865 25.823C70.3205 26.215 70.6565 26.684 70.8945 27.23C71.1325 27.776 71.2515 28.371 71.2515 29.015C71.2515 29.463 71.1325 29.799 70.8945 30.023C70.6565 30.247 70.3205 30.394 69.8865 30.464L64.4265 31.283ZM66.4215 26.957C65.8195 26.957 65.3155 27.146 64.9095 27.524C64.5175 27.888 64.2865 28.42 64.2165 29.12L68.2275 28.469C68.1995 28.105 68.0385 27.762 67.7445 27.44C67.4505 27.118 67.0095 26.957 66.4215 26.957ZM77.2989 32.963C77.6069 32.963 77.9079 32.935 78.2019 32.879C78.5099 32.809 78.7409 32.725 78.8949 32.627V30.695L77.1729 30.842C76.7249 30.884 76.3609 30.989 76.0809 31.157C75.8149 31.311 75.6819 31.549 75.6819 31.871C75.6819 32.207 75.8079 32.473 76.0599 32.669C76.3119 32.865 76.7249 32.963 77.2989 32.963ZM77.1729 24.584C77.9009 24.584 78.5589 24.661 79.1469 24.815C79.7489 24.955 80.2599 25.179 80.6799 25.487C81.0999 25.795 81.4219 26.187 81.6459 26.663C81.8839 27.139 82.0029 27.699 82.0029 28.343V33.089C82.0029 33.453 81.9049 33.747 81.7089 33.971C81.5269 34.181 81.3029 34.363 81.0369 34.517C80.6029 34.783 80.0709 34.986 79.4409 35.126C78.8109 35.266 78.0969 35.336 77.2989 35.336C75.8569 35.336 74.7089 35.063 73.8549 34.517C73.0009 33.957 72.5739 33.11 72.5739 31.976C72.5739 31.01 72.8609 30.275 73.4349 29.771C74.0089 29.267 74.8909 28.952 76.0809 28.826L78.8739 28.532V28.301C78.8739 27.853 78.6919 27.524 78.3279 27.314C77.9639 27.104 77.4389 26.999 76.7529 26.999C76.2209 26.999 75.6959 27.062 75.1779 27.188C74.6739 27.314 74.2189 27.461 73.8129 27.629C73.6449 27.517 73.4979 27.349 73.3719 27.125C73.2599 26.887 73.2039 26.635 73.2039 26.369C73.2039 25.753 73.5259 25.312 74.1699 25.046C74.5759 24.892 75.0449 24.78 75.5769 24.71C76.1229 24.626 76.6549 24.584 77.1729 24.584ZM87.5501 34.979C87.4101 35.021 87.2141 35.056 86.9621 35.084C86.7101 35.126 86.4301 35.147 86.1221 35.147C85.4921 35.147 85.0371 35.049 84.7571 34.853C84.4771 34.643 84.3371 34.244 84.3371 33.656V27.251C84.3371 26.859 84.4351 26.523 84.6311 26.243C84.8271 25.963 85.1001 25.718 85.4501 25.508C85.9121 25.228 86.4651 25.011 87.1091 24.857C87.7671 24.689 88.4531 24.605 89.1671 24.605C90.6231 24.605 91.3511 25.095 91.3511 26.075C91.3511 26.313 91.3161 26.53 91.2461 26.726C91.1761 26.922 91.0991 27.09 91.0151 27.23C90.6931 27.16 90.3011 27.125 89.8391 27.125C89.4331 27.125 89.0271 27.174 88.6211 27.272C88.2151 27.37 87.8581 27.503 87.5501 27.671V34.979ZM99.1943 28.553C99.1943 28.063 99.0473 27.699 98.7533 27.461C98.4593 27.223 98.0673 27.104 97.5773 27.104C97.2413 27.104 96.9333 27.146 96.6533 27.23C96.3733 27.314 96.1143 27.419 95.8763 27.545V34.979C95.7363 35.021 95.5403 35.056 95.2883 35.084C95.0363 35.126 94.7563 35.147 94.4483 35.147C93.8183 35.147 93.3633 35.049 93.0833 34.853C92.8033 34.643 92.6633 34.244 92.6633 33.656V27.167C92.6633 26.803 92.7403 26.509 92.8943 26.285C93.0483 26.061 93.2653 25.851 93.5453 25.655C93.9933 25.333 94.5673 25.074 95.2673 24.878C95.9813 24.682 96.7653 24.584 97.6193 24.584C99.1453 24.584 100.321 24.92 101.147 25.592C101.987 26.264 102.407 27.223 102.407 28.469V34.979C102.253 35.021 102.05 35.056 101.798 35.084C101.546 35.126 101.266 35.147 100.958 35.147C100.328 35.147 99.8733 35.049 99.5933 34.853C99.3273 34.643 99.1943 34.244 99.1943 33.656V28.553ZM117.787 31.829C117.619 31.969 117.402 32.081 117.136 32.165C116.87 32.249 116.569 32.291 116.233 32.291C115.785 32.291 115.407 32.235 115.099 32.123C114.805 32.011 114.609 31.815 114.511 31.535C114.063 30.233 113.678 29.155 113.356 28.301C113.048 27.433 112.803 26.684 112.621 26.054H112.537C112.495 26.922 112.46 27.72 112.432 28.448C112.404 29.162 112.376 29.862 112.348 30.548C112.334 31.234 112.313 31.927 112.285 32.627C112.257 33.327 112.222 34.097 112.18 34.937C112.026 34.993 111.816 35.042 111.55 35.084C111.298 35.14 111.032 35.168 110.752 35.168C110.206 35.168 109.779 35.077 109.471 34.895C109.163 34.699 109.009 34.37 109.009 33.908C109.009 33.642 109.016 33.278 109.03 32.816C109.058 32.34 109.086 31.801 109.114 31.199C109.156 30.583 109.198 29.925 109.24 29.225C109.296 28.525 109.345 27.818 109.387 27.104C109.443 26.376 109.492 25.662 109.534 24.962C109.576 24.248 109.618 23.59 109.66 22.988C109.772 22.834 109.996 22.666 110.332 22.484C110.682 22.288 111.165 22.19 111.781 22.19C112.439 22.19 112.957 22.295 113.335 22.505C113.713 22.715 114 23.058 114.196 23.534C114.35 23.912 114.511 24.339 114.679 24.815C114.847 25.277 115.015 25.753 115.183 26.243C115.351 26.733 115.512 27.223 115.666 27.713C115.834 28.189 115.988 28.63 116.128 29.036H116.233C116.625 27.804 117.017 26.614 117.409 25.466C117.801 24.304 118.144 23.331 118.438 22.547C118.634 22.449 118.879 22.365 119.173 22.295C119.481 22.225 119.817 22.19 120.181 22.19C120.811 22.19 121.315 22.281 121.693 22.463C122.071 22.645 122.295 22.911 122.365 23.261C122.421 23.541 122.484 23.968 122.554 24.542C122.624 25.116 122.694 25.774 122.764 26.516C122.834 27.258 122.904 28.042 122.974 28.868C123.044 29.68 123.107 30.471 123.163 31.241C123.219 31.997 123.268 32.69 123.31 33.32C123.352 33.95 123.38 34.44 123.394 34.79C123.184 34.916 122.96 35.007 122.722 35.063C122.484 35.133 122.183 35.168 121.819 35.168C121.357 35.168 120.958 35.084 120.622 34.916C120.3 34.748 120.125 34.419 120.097 33.929C119.999 32.305 119.929 30.821 119.887 29.477C119.859 28.119 119.824 27.006 119.782 26.138H119.677C119.509 26.726 119.264 27.468 118.942 28.364C118.634 29.26 118.249 30.415 117.787 31.829ZM135.847 29.939C135.847 30.765 135.721 31.514 135.469 32.186C135.217 32.844 134.853 33.404 134.377 33.866C133.915 34.328 133.355 34.685 132.697 34.937C132.039 35.189 131.304 35.315 130.492 35.315C129.68 35.315 128.938 35.196 128.266 34.958C127.608 34.706 127.041 34.349 126.565 33.887C126.103 33.425 125.746 32.865 125.494 32.207C125.242 31.535 125.116 30.779 125.116 29.939C125.116 29.127 125.242 28.392 125.494 27.734C125.76 27.062 126.124 26.495 126.586 26.033C127.062 25.571 127.629 25.214 128.287 24.962C128.959 24.71 129.694 24.584 130.492 24.584C131.29 24.584 132.018 24.71 132.676 24.962C133.334 25.214 133.894 25.578 134.356 26.054C134.832 26.516 135.196 27.076 135.448 27.734C135.714 28.392 135.847 29.127 135.847 29.939ZM130.492 27.104C129.834 27.104 129.323 27.349 128.959 27.839C128.595 28.329 128.413 29.029 128.413 29.939C128.413 30.877 128.588 31.591 128.938 32.081C129.302 32.557 129.82 32.795 130.492 32.795C131.164 32.795 131.675 32.55 132.025 32.06C132.389 31.57 132.571 30.863 132.571 29.939C132.571 29.043 132.389 28.35 132.025 27.86C131.661 27.356 131.15 27.104 130.492 27.104ZM140.973 34.979C140.833 35.021 140.637 35.056 140.385 35.084C140.133 35.126 139.853 35.147 139.545 35.147C138.915 35.147 138.46 35.049 138.18 34.853C137.9 34.643 137.76 34.244 137.76 33.656V27.251C137.76 26.859 137.858 26.523 138.054 26.243C138.25 25.963 138.523 25.718 138.873 25.508C139.335 25.228 139.888 25.011 140.532 24.857C141.19 24.689 141.876 24.605 142.59 24.605C144.046 24.605 144.774 25.095 144.774 26.075C144.774 26.313 144.739 26.53 144.669 26.726C144.599 26.922 144.522 27.09 144.438 27.23C144.116 27.16 143.724 27.125 143.262 27.125C142.856 27.125 142.45 27.174 142.044 27.272C141.638 27.37 141.281 27.503 140.973 27.671V34.979ZM148.652 31.283C148.848 31.871 149.191 32.291 149.681 32.543C150.171 32.781 150.738 32.9 151.382 32.9C151.97 32.9 152.523 32.823 153.041 32.669C153.559 32.501 153.979 32.319 154.301 32.123C154.511 32.263 154.686 32.445 154.826 32.669C154.966 32.893 155.036 33.138 155.036 33.404C155.036 33.726 154.938 34.006 154.742 34.244C154.546 34.482 154.273 34.685 153.923 34.853C153.587 35.007 153.181 35.119 152.705 35.189C152.243 35.273 151.732 35.315 151.172 35.315C150.346 35.315 149.583 35.203 148.883 34.979C148.183 34.741 147.581 34.398 147.077 33.95C146.573 33.488 146.174 32.914 145.88 32.228C145.6 31.542 145.46 30.737 145.46 29.813C145.46 28.917 145.6 28.14 145.88 27.482C146.174 26.824 146.559 26.278 147.035 25.844C147.525 25.41 148.078 25.095 148.694 24.899C149.324 24.689 149.968 24.584 150.626 24.584C151.34 24.584 151.991 24.696 152.579 24.92C153.181 25.13 153.692 25.431 154.112 25.823C154.546 26.215 154.882 26.684 155.12 27.23C155.358 27.776 155.477 28.371 155.477 29.015C155.477 29.463 155.358 29.799 155.12 30.023C154.882 30.247 154.546 30.394 154.112 30.464L148.652 31.283ZM150.647 26.957C150.045 26.957 149.541 27.146 149.135 27.524C148.743 27.888 148.512 28.42 148.442 29.12L152.453 28.469C152.425 28.105 152.264 27.762 151.97 27.44C151.676 27.118 151.235 26.957 150.647 26.957Z" fill="url(#paint0_linear_56:30)"/>
<rect x="0.5" y="0.5" width="206" height="57" stroke="url(#paint1_linear_56:30)"/>
<defs>
<linearGradient id="paint0_linear_56:30" x1="103.5" y1="12" x2="103.5" y2="46" gradientUnits="userSpaceOnUse">
<stop stop-color="#F31402"/>
<stop offset="1" stop-color="#F0A24D"/>
</linearGradient>
<linearGradient id="paint1_linear_56:30" x1="103.5" y1="0" x2="103.5" y2="58" gradientUnits="userSpaceOnUse">
<stop stop-color="#F31402"/>
<stop offset="1" stop-color="#F0A24D"/>
</linearGradient>
</defs>
</svg>
